<svg xmlns="http://www.w3.org/2000/svg" width="38.217" height="40.982"><g fill="#FFF" fill-rule="evenodd"><path d="M26.09 26.486L37.844 38.71c.505.541.505 1.389-.054 1.893-.27.253-.595.379-.938.379-.36 0-.703-.144-.973-.415L23.962 28.181a15.206 15.206 0 01-8.564 2.614C6.905 30.795 0 23.89 0 15.398 0 6.905 6.923 0 15.416 0s15.397 6.905 15.397 15.398c0 4.345-1.82 8.275-4.724 11.088zM15.415 2.704c-7.014 0-12.712 5.698-12.712 12.693 0 7.014 5.698 12.712 12.712 12.694 6.995 0 12.693-5.698 12.693-12.694 0-6.995-5.68-12.693-12.693-12.693z"/><path d="M22.303 14.045h-5.535V8.51c0-.74-.613-1.352-1.352-1.352-.74 0-1.353.613-1.353 1.352v5.535H8.51c-.74 0-1.352.613-1.352 1.353 0 .739.613 1.352 1.352 1.352h5.535v5.535c0 .74.613 1.352 1.353 1.352.739 0 1.352-.613 1.352-1.352V16.75h5.535c.74 0 1.352-.613 1.352-1.352 0-.74-.577-1.353-1.334-1.353z"/></g></svg>