<svg xmlns="http://www.w3.org/2000/svg" width="20.811" height="26"><path fill="#4DD2D0" fill-rule="evenodd" d="M20.805 22.475L19.317 5.71a.716.716 0 00-.713-.654h-3.062A5.14 5.14 0 0010.405 0 5.14 5.14 0 005.27 5.056H2.207a.713.713 0 00-.713.654L.005 22.475c0 .021-.005.042-.005.064C0 24.447 1.75 26 3.903 26h13.005c2.153 0 3.903-1.553 3.903-3.461 0-.022 0-.043-.006-.064zm-10.4-21.04a3.705 3.705 0 013.701 3.621H6.705a3.704 3.704 0 013.7-3.62zm-6.502 23.13h13.005c1.345 0 2.446-.894 2.467-1.994l-1.43-16.074h-2.403v2.18c0 .4-.32.718-.718.718a.715.715 0 01-.718-.718v-2.18H6.699v2.18a.715.715 0 01-.717.718.715.715 0 01-.718-.718v-2.18H2.86L1.436 22.571c.02 1.1 1.116 1.993 2.467 1.993z"/></svg>