<svg xmlns="http://www.w3.org/2000/svg" xmlns:xlink="http://www.w3.org/1999/xlink" width="21.76" height="27.2"><defs><mask id="c" maskContentUnits="userSpaceOnUse" maskUnits="userSpaceOnUse"><path d="M0 0h21.76v27.2H0z"/><use fill="#fff" xlink:href="#a"/></mask><mask id="d" maskContentUnits="userSpaceOnUse" maskUnits="userSpaceOnUse"><path d="M0 0h21.76v27.2H0z"/><use fill="#fff" xlink:href="#b"/></mask><rect id="a" width="21.76" height="27.2" x="0" y="0" rx="0" ry="0"/><path id="b" fill-rule="evenodd" d="M-9.12-12.8v40h40v-40h-40z"/></defs><use fill="none" xlink:href="#a"/><g mask="url(#c)"><use fill="none" xlink:href="#b"/><g mask="url(#d)"><path fill="#4DD2D0" fill-rule="evenodd" d="M20.24 6l1.52 17.52c0 2.08-1.84 3.68-4 3.68H4.16c-2.24 0-4.08-1.6-4.08-3.6v-.08L1.6 6c0-.4.32-.72.72-.72h3.2C5.52 2.4 7.92 0 10.88 0c2.96 0 5.36 2.4 5.44 5.28h3.2c.32 0 .72.32.72.72zm-5.52-.72c0-2.08-1.76-3.76-3.84-3.76S7.04 3.2 6.96 5.28h7.76z"/></g></g></svg>