<svg xmlns="http://www.w3.org/2000/svg" xmlns:xlink="http://www.w3.org/1999/xlink" width="61" height="61"><defs><path id="a" d="M0 0h61v61H0z"/><mask id="b" maskContentUnits="userSpaceOnUse" maskUnits="userSpaceOnUse"><path d="M0 0h61v61H0z"/><use fill="#fff" xlink:href="#a"/></mask></defs><use fill="none" xlink:href="#a"/><g mask="url(#b)" fill="#4DD2D0" fill-rule="evenodd"><path d="M0 30.5C0 13.683 13.683 0 30.5 0S61 13.683 61 30.5 47.317 61 30.5 61 0 47.317 0 30.5zm3.15 0c0 15.085 12.265 27.35 27.35 27.35S57.85 45.586 57.85 30.5 45.586 3.15 30.5 3.15 3.15 15.414 3.15 30.5z"/><path d="M42.955 16.801l4.63 4.645a1.568 1.568 0 010 2.22L27.098 44.2a1.568 1.568 0 01-2.22 0L13.447 32.767a1.568 1.568 0 010-2.22l4.63-4.645a1.568 1.568 0 012.22 0l5.668 5.669 14.77-14.77a1.568 1.568 0 012.22 0zM16.754 31.665l9.195 9.196 18.297-18.313-2.409-2.409-14.785 14.77a1.568 1.568 0 01-2.22 0l-5.669-5.669-2.41 2.425z"/></g></svg>