<svg xmlns="http://www.w3.org/2000/svg" xmlns:xlink="http://www.w3.org/1999/xlink" width="26.665" height="27.08"><defs><path id="a" d="M0 0h26.665v27.08H0z"/><mask id="b" maskContentUnits="userSpaceOnUse" maskUnits="userSpaceOnUse"><path d="M0 0h26.665v27.08H0z"/><use fill="#fff" xlink:href="#a"/></mask></defs><use fill="none" xlink:href="#a"/><g mask="url(#b)"><path fill="#4DD2D0" fill-rule="evenodd" d="M23.332 0H3.333C1.495 0 0 1.518 0 3.385v20.31c0 1.867 1.495 3.385 3.333 3.385h10v-9.309H9.999V13.54h3.334v-3.385c0-2.803 2.24-5.078 5-5.078h3.333V9.31h-1.667c-.922 0-1.667-.09-1.667.846v3.385H22.5l-1.667 4.231h-2.5v9.309h5c1.839 0 3.333-1.518 3.333-3.385V3.385C26.665 1.518 25.171 0 23.332 0z"/></g></svg>