<svg xmlns="http://www.w3.org/2000/svg" width="40" height="40"><path d="M34.546 21.482h-.184c-.647 2.555-2.927 4.444-5.635 4.444-2.71 0-4.988-1.89-5.634-4.444H5.455C4.65 21.482 4 20.819 4 20c0-.818.651-1.481 1.455-1.481h17.638c.646-2.555 2.926-4.445 5.634-4.445 2.71 0 4.988 1.89 5.635 4.445h.184c.803 0 1.454.663 1.454 1.481 0 .819-.65 1.482-1.454 1.482zm-5.819-4.445c-1.603 0-2.909 1.329-2.909 2.963 0 1.633 1.305 2.963 2.91 2.963 1.603 0 2.909-1.329 2.909-2.963 0-1.633-1.305-2.963-2.91-2.963zm-11.82-9.63c-.646 2.556-2.926 4.445-5.634 4.445-2.71 0-4.988-1.89-5.635-4.444h-.184C4.651 7.408 4 6.744 4 5.926s.65-1.482 1.454-1.482h.184C6.285 1.89 8.565 0 11.273 0c2.71 0 4.988 1.89 5.634 4.444h17.638c.804 0 1.455.664 1.455 1.482s-.651 1.482-1.455 1.482zm-5.634-4.444c-1.604 0-2.91 1.328-2.91 2.963 0 1.633 1.305 2.963 2.91 2.963 1.603 0 2.909-1.329 2.909-2.963 0-1.634-1.305-2.963-2.91-2.963zm12.18 32.593C22.806 38.11 20.526 40 17.818 40c-2.71 0-4.988-1.89-5.635-4.444H5.454c-.803 0-1.454-.664-1.454-1.482s.65-1.482 1.454-1.482h6.73c.646-2.555 2.926-4.444 5.634-4.444 2.71 0 4.988 1.89 5.635 4.444h11.092c.804 0 1.455.664 1.455 1.482s-.651 1.482-1.455 1.482zm-5.635-4.445c-1.604 0-2.909 1.328-2.909 2.963 0 1.634 1.304 2.963 2.909 2.963 1.604 0 2.91-1.328 2.91-2.963 0-1.634-1.305-2.963-2.91-2.963z" fill="#4dd2d0"/></svg>