<svg data-name="Capa 1" xmlns="http://www.w3.org/2000/svg" viewBox="0 0 1449 241.51"><path d="M0 237.39q17.9-31.62 42-78.21l45.23-86.81q21.15-40.22 35.09-69.62 22.33.36 31.62.35 16.33 0 32-.35l24.56 70.31 53.42 145.42 7.39 18.91-25.81-.38q-8.93 0-30 .34-4.12-15.3-13-41.25t-15.12-42.09H96.93q-20.1 40.92-39.16 83.37l-28-.34q-7.93-.03-29.77.35zm112.22-119.12h65.86l-27-79.57-13.92 28.94zm323.43 119.12q-14.28-.38-22.2-.38-8.59 0-23.73.34l1.52-29.91a152.86 152.86 0 01-13 15.13 64.58 64.58 0 01-13.4 9.88 65.78 65.78 0 01-17.27 6.79 82 82 0 01-19.25 2.24 79.66 79.66 0 01-30.94-6 69.57 69.57 0 01-24.57-16.93 68.08 68.08 0 01-15-26 102.51 102.51 0 01-4.81-31.37 116.87 116.87 0 018.65-43.86q8.6-21.4 23.53-34.63a87.22 87.22 0 0133.83-18.74 144.34 144.34 0 0140.54-5.5 244.15 244.15 0 0135.38 2.92q1.28-22.35 1.27-46.93V2.75q16.17.36 24.78.35 11.19 0 25.12-.35-3.78 43.66-7.12 118.87t-3.33 115.77zM393.16 94.01a96.09 96.09 0 00-24.75-3.44 88.36 88.36 0 00-26 3.78 54.42 54.42 0 00-21.92 12.9q-9.54 9.11-14.7 23.37a81 81 0 00-5.14 27.53 60.75 60.75 0 004.72 24.23 37.73 37.73 0 0014.7 17.36 40.87 40.87 0 0022.58 6.37 42.69 42.69 0 0017.19-3.36 41.27 41.27 0 0014.09-10.31 58.35 58.35 0 0010.74-18q4.39-11 6.28-29.22 1.18-13.37 2.21-51.21zm49.54 143.38l5-81.65 1.38-47.44q.33-14.61.34-29.4 0-2.58-.34-16.33 16 .35 23.55.35 8.77 0 23.21-.35l-.86 24.24a103.81 103.81 0 0111.15-13.8 49 49 0 0123.2-12.8 60 60 0 0128.54 0q0 16 1.54 40.56a71 71 0 00-18.39-2.76 48 48 0 00-17.62 3 40.27 40.27 0 00-13.75 9.09 49 49 0 00-10 15q-3.27 7.23-4.82 18.74-1.33 8.94-2.26 30.6t-.92 42.63q0 8.07.51 20.28-13.08-.35-23.93-.34-10.72 0-25.53.38z"/><path d="M544.32 237.39q2.63-25.78 3.67-43.15 1.74-27.5 3-63.42t1.84-68.25q16.74.35 25.11.35 7.7 0 24.95-.35-2.32 29.91-3.74 57.07t-2.07 62.23q-.68 35.07-.67 55.52-15.66-.35-25.12-.34-8.9-.04-26.97.34zm9.42-204.73q.67-17.7.68-27.15V.01q15.65.36 25.44.35 13.41 0 24.93-.35c-.34 2.87-.58 6.14-.69 9.8l-.86 22.86q-13.07-.33-24.06-.34t-25.44.33z"/><path d="M602.97 237.39l4.1-55.87 4.11-79.93 2.39-98.84q15.14.36 25.13.35 13.07 0 25-.35l-3.11 40.92q-1 15.12-2.75 48.64a114.74 114.74 0 019.19-12.37 61.52 61.52 0 018.26-7.65 56.19 56.19 0 019.36-5.93 67.71 67.71 0 0111.27-4.3 93.56 93.56 0 0114.35-2.92 124.4 124.4 0 0116.16-1 113.26 113.26 0 0127.42 3.27 57.55 57.55 0 0122.7 11 39.63 39.63 0 0113.06 18.14 67.25 67.25 0 013.53 21.74q0 7.39-.87 23l-4.17 75.11q-.52 11.7-.52 27-13.93-.39-24.61-.39-11.51 0-26.27.34 2.38-20.28 4.68-55.35t2.3-49.85q0-13.57-4.38-21.23a26.48 26.48 0 00-12.87-11.34 46 46 0 00-18.61-3.7 53.94 53.94 0 00-23 4.64 41.39 41.39 0 00-16.17 13.49q-5.31 7.39-8.92 21.14-3.78 14.45-5.49 44.7-.87 14.61-1.92 57.58-13.56-.42-23.37-.42-9.3 0-25.98.38z" fill="#0ff"/><path d="M888.18 58.45a121.29 121.29 0 0137.9 5.93 82.84 82.84 0 0130.77 17.53 73.15 73.15 0 0119 28.36 98.76 98.76 0 016.36 35.33 108.69 108.69 0 01-6.7 37.82 90.34 90.34 0 01-19.43 31.59 79 79 0 01-31.72 19.94 122.22 122.22 0 01-40.48 6.62 120.2 120.2 0 01-37.9-5.93 82 82 0 01-30.69-17.8 77 77 0 01-19.33-28.87 97.2 97.2 0 01-6.62-35.59 108.47 108.47 0 016-36.09 84.06 84.06 0 0118.83-30.6q12.79-13.41 32.74-20.8a117.76 117.76 0 0141.27-7.44zm0 35.41a49.31 49.31 0 00-26.63 7.3q-11.73 7.32-17.47 21.75a84.3 84.3 0 00-5.74 31.46 70.82 70.82 0 004.71 26.64 40.79 40.79 0 0015.41 18.91q10.71 7.22 25.44 7.22 15.06 0 26.46-7.48t17.12-22a86.47 86.47 0 005.74-32.06 72.42 72.42 0 00-4.45-26 38.62 38.62 0 00-15-18.73q-10.53-7.01-25.6-7.01z"/><path d="M971.75 234.12l-3.78-37.81a190.73 190.73 0 0028.54 9.54 96.94 96.94 0 0021.48 2.66 50.8 50.8 0 0016.5-2.32q6.71-2.32 10-6.87a16.13 16.13 0 003.27-9.54 19 19 0 00-.43-4.13 15.5 15.5 0 00-1.55-3.95 24.13 24.13 0 00-2.58-3.87 37.85 37.85 0 00-4-4.13q-2.57-2.31-7.39-5.93l-9.28-7.39q-13.41-10.49-20.45-16.5a81.88 81.88 0 01-11.87-12.29 48.79 48.79 0 01-7.3-13.24 41.3 41.3 0 015.16-38.07q7.64-11.34 22.26-16.59t34.38-5.24q22.52 0 51.91 5.33l2.23 35.92q-19.94-8.07-38.33-8.08a68.6 68.6 0 00-17.45 2c-5 1.32-8.57 3.33-10.74 6a14 14 0 00-3.27 9 16.91 16.91 0 001 5.76 20.56 20.56 0 003.61 5.93 44.34 44.34 0 005.93 5.84q3.36 2.76 14 10.83t18.65 14.61a83.25 83.25 0 0113.15 13.16 51.47 51.47 0 017.91 14.18 44.53 44.53 0 012.75 15.29 40.11 40.11 0 01-7.91 23.9q-7.9 11-23.89 17.19a98.49 98.49 0 01-35.75 6.19 234.29 234.29 0 01-25.1-1.64 248.18 248.18 0 01-31.66-5.74z"/><path d="M1108.79 100.91q2.4-12.37 3-17.37t2.15-15.12a398.93 398.93 0 0141.26-7.74 278.41 278.41 0 0134.55-2.23 129.82 129.82 0 0134.72 4.38q15.81 4.38 24.75 14t8.94 27.68q0 9.79-2.73 49.93t-3.24 82.94q-13.08-.35-24.09-.34-10.5 0-24.6.34 2.26-20.79 3.65-48.13l2.26-42.8a107 107 0 01-10 6 60.29 60.29 0 01-7.74 3.18q-4.3 1.47-15.14 4.47t-17.37 5.25a77.66 77.66 0 00-11.79 5.07 39.4 39.4 0 00-8.86 6.36 22.83 22.83 0 00-5.25 7.39 21.2 21.2 0 00-1.63 8.34 19.28 19.28 0 004.21 12.46 22 22 0 0010.57 7.3 48.44 48.44 0 0015 2.07 83.84 83.84 0 0011.6-.86 100.05 100.05 0 0016.41-4.3 301 301 0 00-8.42 29.22q-12.21 2.07-19.42 2.58c-4.82.34-9.28.52-13.41.52q-21.66 0-35.58-5.85a39.54 39.54 0 01-20.54-18.56 54.93 54.93 0 01-6.62-25.62 43.82 43.82 0 0110.15-27.84 66.17 66.17 0 0112.9-11.61q7.9-5.58 22.87-10.82t39.56-10.58q6.54-1.36 13.59-3.35a81.23 81.23 0 0011.27-3.87 25.25 25.25 0 007.3-4.89 20.42 20.42 0 004.56-6.28 16.14 16.14 0 001.47-6.7 15.94 15.94 0 00-4.39-11.35 23.26 23.26 0 00-11.35-6.44 61.1 61.1 0 00-15.4-1.81q-31.31.02-69.17 14.98zm149.92 136.48q3.93-39 6.58-87.67t3-87.15q15.84.35 25.3.35 11.19 0 23.75-.35l-1.91 29.23a129.69 129.69 0 019.36-12 58.21 58.21 0 0110.32-8.76 59 59 0 0113.41-6.88 94.91 94.91 0 0116-4.12 106.33 106.33 0 0118.48-1.55 109.59 109.59 0 0129.31 3.87q14 3.86 22.61 12.29a41 41 0 0111.33 18.36 79.32 79.32 0 012.75 21.14q0 4.65-.52 14.78l-3.55 75.08q-.67 15.65-.84 33.35-13.61-.35-23.24-.34-13.1 0-26.34.34 1.38-15 3.45-52.17t2.07-49.25q0-13.58-4.29-21.83a28.15 28.15 0 00-13.32-12.55 44.78 44.78 0 00-19.49-4.29 47 47 0 00-19.24 4 43.52 43.52 0 00-15.45 11.52 53.92 53.92 0 00-10.65 19.08q-4 12-5.84 39.7-1.74 24.59-2.77 65.84-13.26-.35-23.93-.34-10.84-.06-26.34.32z"/></svg>