<svg xmlns="http://www.w3.org/2000/svg" width="73.9" height="51.696"><path fill="#4DD2D0" fill-rule="evenodd" d="M67.922 23.809c3.872 1.178 5.875 2.812 5.963 4.859.015.088.015.191.015.28v16.166c0 2.636-3.195 4.182-5.86 5.007-3.254 1.016-7.539 1.575-12.074 1.575-8.23 0-17.065-1.87-17.816-5.948-3.43-.03-6.67-.383-9.423-1.031a17.524 17.524 0 01-11.102 3.946C7.907 48.663 0 40.756 0 31.038c0-1.104.103-2.194.31-3.283 1.81-9.556 11.042-15.843 20.613-14.017l-.162-6.715a2.708 2.708 0 01-.044-.486c0-2.635 3.195-4.166 5.86-4.991C29.83.545 34.116 0 38.65 0c4.55 0 8.878.545 12.191 1.546 3.52 1.06 5.507 2.503 5.92 4.285.132.22.205.47.22.736v15.71c4.123.089 7.936.634 10.94 1.532zM27.46 4.388c2.975-.913 6.95-1.428 11.19-1.428 4.212 0 8.35.515 11.338 1.428 3.195.972 3.902 1.973 3.902 2.164 0 .206-.721 1.222-3.917 2.18-2.989.898-7.111 1.413-11.322 1.413-4.064 0-7.922-.471-10.852-1.325-3.166-.913-4.05-1.914-4.123-2.238 0-.03-.014-.03-.014-.03.014-.28.692-1.222 3.798-2.164zm22.543 12.5c3.195-.971 3.902-1.987 3.902-2.179v-.047c-.001-.188-.002-.366.147-.556v-3.858a17.66 17.66 0 01-3.195 1.28c-3.313 1.002-7.657 1.547-12.192 1.547-4.343 0-8.48-.5-11.676-1.428a16.312 16.312 0 01-3.18-1.222l.103 4.152a16.987 16.987 0 014.608 2.606c.045.015.074.015.118.03 2.827.72 6.39 1.104 10.027 1.104 4.211 0 8.349-.53 11.338-1.429zM6.773 40.933c5.448 5.993 14.739 6.42 20.732.972a14.589 14.589 0 004.8-10.852c0-.987-.104-1.988-.295-2.96a14.736 14.736 0 00-10.042-11.057 14.996 14.996 0 00-4.343-.648 14.663 14.663 0 00-9.88 3.813c-5.993 5.448-6.42 14.74-.972 20.732zm32.025-14.46h-.147c-1.414 0-2.783-.058-4.05-.146a17.456 17.456 0 00-2.635-5.478c2.208.28 4.432.427 6.67.427 4.55 0 8.893-.545 12.206-1.546a18.596 18.596 0 003.18-1.266v3.858c-6.316.176-12.81 1.502-15.224 4.152zm1.958 2.283c-.015.03-.015.044-.015.059l.03.059c.088.31.957 1.325 4.123 2.238 2.93.84 6.787 1.31 10.851 1.31 4.197 0 8.172-.486 11.19-1.384 3.27-.972 4.005-1.987 4.02-2.208v-.015c-.015-.22-.75-1.193-3.887-2.135-3.004-.913-7.126-1.399-11.337-1.399h-.25c-3.917 0-7.643.442-10.499 1.252-3.048.854-4.093 1.826-4.226 2.223zm-2.915.648a51.078 51.078 0 01-2.665-.103c.044.589.073 1.163.073 1.737 0 1.149-.117 2.312-.338 3.446.972.073 1.987.118 3.018.132l-.088-5.212zm33.129 7.082h.015V32.57c-1.031.53-2.106.957-3.225 1.266-3.283.972-7.553 1.502-12.03 1.502-4.343 0-8.48-.5-11.676-1.429a18.067 18.067 0 01-3.21-1.236l.06 3.386.014 1.237c1.149 1.428 6.64 3.269 14.798 3.269 4.255 0 8.275-.5 11.293-1.414 3.18-.972 3.873-1.973 3.873-2.179 0-.162.088-.339.088-.486zM31.244 42.23a17.78 17.78 0 002.827-4.845c1.252.103 2.548.177 3.902.192v.265l.089 4.991a45.992 45.992 0 01-6.818-.603zm35.942 5.094c-2.974.928-6.965 1.443-11.205 1.443-4.255 0-8.23-.5-11.176-1.399-3.106-.957-3.754-1.943-3.754-2.164v-.03l-.074-4.27c1.178.575 2.4 1.016 3.666 1.34 3.092.81 7.024 1.267 11.058 1.267 4.55 0 8.864-.545 12.162-1.546a18.87 18.87 0 003.092-1.252v4.417h.015c0 .206-.677 1.222-3.784 2.194z"/></svg>