<svg xmlns="http://www.w3.org/2000/svg" width="49.625" height="62"><path fill="#4DD2D0" fill-rule="evenodd" d="M49.613 53.594l-3.55-39.977a1.709 1.709 0 00-1.7-1.56h-7.302C36.959 5.39 31.507 0 24.813 0c-6.695 0-12.147 5.389-12.248 12.058H5.262a1.7 1.7 0 00-1.7 1.56L.013 53.593c0 .05-.012.101-.012.152C0 58.298 4.171 62 9.306 62H40.32c5.135 0 9.306-3.702 9.306-8.254 0-.05 0-.101-.012-.152zm-24.8-50.17c4.805 0 8.723 3.854 8.824 8.634H15.988c.102-4.78 4.02-8.635 8.825-8.635zM9.306 58.576H40.32c3.208 0 5.832-2.13 5.883-4.755l-3.41-38.328H37.06v5.198c0 .951-.761 1.712-1.712 1.712s-1.712-.761-1.712-1.712v-5.198H15.975v5.198c0 .951-.76 1.712-1.711 1.712a1.705 1.705 0 01-1.712-1.712v-5.198h-5.73l-3.4 38.329c.051 2.625 2.663 4.755 5.883 4.755z"/></svg>