<svg xmlns="http://www.w3.org/2000/svg" xmlns:xlink="http://www.w3.org/1999/xlink" width="28.367" height="28.808"><defs><path id="a" d="M0 0h28.367v28.808H0z"/><mask id="b" maskContentUnits="userSpaceOnUse" maskUnits="userSpaceOnUse"><path d="M0 0h28.367v28.808H0z"/><use fill="#fff" xlink:href="#a"/></mask></defs><use fill="none" xlink:href="#a"/><g mask="url(#b)"><path fill="#4DD2D0" fill-rule="evenodd" d="M14.566 0C6.793 0 2.659 5.058 2.659 10.578c0 2.56 1.408 5.75 3.663 6.763.343.158.526.09.604-.23.066-.248.365-1.424.51-1.98a.51.51 0 00-.123-.502c-.748-.877-1.34-2.481-1.34-3.983 0-3.849 3.014-7.585 8.139-7.585 4.432 0 7.535 2.926 7.535 7.106 0 4.727-2.46 7.996-5.663 7.996-1.773 0-3.091-1.412-2.67-3.157.504-2.082 1.496-4.315 1.496-5.818 0-1.344-.748-2.459-2.277-2.459-1.801 0-3.264 1.812-3.264 4.249 0 1.547.538 2.588.538 2.588L7.69 22.248c-.56 2.312.078 6.06.133 6.38.033.18.233.237.338.09.177-.236 2.333-3.359 2.937-5.615l1.124-4.158c.593 1.092 2.31 2.003 4.134 2.003 5.43 0 9.357-4.85 9.357-10.865C25.686 4.316 20.827 0 14.566 0z"/></g></svg>