<svg xmlns="http://www.w3.org/2000/svg" width="40" height="40"><path d="M2.393 16.794L.076 8.038c-.295-1.196.295-2.44 1.306-2.822 1.053-.336 2.148.335 2.485 1.483l.842 3.253C7.785 4.02 13.471 0 20 0c7.288 0 13.564 5.072 16.26 12.249.548 1.483-.421 3.158-1.81 3.158-.801 0-1.517-.527-1.812-1.34-2.106-5.646-6.95-9.57-12.637-9.57-5.139 0-9.646 3.254-11.963 8.039l3.412-1.149c1.053-.335 2.148.335 2.485 1.483.295 1.197-.295 2.44-1.305 2.823l-7.71 2.632c-1.095.335-2.19-.334-2.527-1.53zm33.74 16.459L35.291 30C32.216 35.98 26.529 40 20 40c-7.288 0-13.564-5.072-16.26-12.249-.548-1.483.421-3.158 1.811-3.158.8 0 1.516.527 1.811 1.34 2.107 5.646 6.95 9.57 12.637 9.57 5.139 0 9.646-3.254 11.963-8.039l-3.412 1.148c-1.053.336-2.148-.335-2.485-1.483-.295-1.196.295-2.44 1.306-2.823l7.708-2.631c1.053-.335 2.148.335 2.485 1.531l2.359 8.756c.295 1.196-.295 2.44-1.306 2.823-1.053.335-2.19-.335-2.485-1.531z" fill="#4dd2d0"/></svg>