<svg xmlns="http://www.w3.org/2000/svg" xmlns:xlink="http://www.w3.org/1999/xlink" width="26.665" height="27.08"><defs><path id="a" d="M0 0h26.665v27.08H0z"/><mask id="b" maskContentUnits="userSpaceOnUse" maskUnits="userSpaceOnUse"><path d="M0 0h26.665v27.08H0z"/><use fill="#fff" xlink:href="#a"/></mask></defs><use fill="none" xlink:href="#a"/><g mask="url(#b)"><path fill="#4DD2D0" fill-rule="evenodd" d="M26.665 5.141a11.18 11.18 0 01-3.15.878A5.499 5.499 0 0025.92 2.95a10.861 10.861 0 01-3.469 1.344 5.432 5.432 0 00-3.99-1.756C15.438 2.539 13 5.035 13 8.092c0 .44.037.862.125 1.264C8.578 9.13 4.557 6.918 1.854 3.55a5.634 5.634 0 00-.75 2.808c0 1.926.974 3.629 2.427 4.613a5.315 5.315 0 01-2.469-.683v.064c0 2.697 1.896 4.94 4.38 5.453a5.453 5.453 0 01-1.432.185c-.349 0-.703-.021-1.036-.095.708 2.2 2.718 3.813 5.109 3.866a10.892 10.892 0 01-6.776 2.37c-.448 0-.88-.022-1.307-.075a15.212 15.212 0 008.385 2.492c10.062 0 15.562-8.463 15.562-15.799 0-.243-.01-.481-.021-.72a11.043 11.043 0 002.74-2.887z"/></g></svg>